PathFileType	4	(X/Y/Z)	Trial12_Gait_LowerBody_markers_cropped.trc
DataRate	CameraRate	NumFrames	NumMarkers	Units	OrigDataRate	OrigDataStartFrame	OrigNumFrames
200	200	5	27	m	200	50	101
Frame#	Time	R_ASIS			L_ASIS			Sacral			L_Thigh_Superior			L_Thigh_Posterior			L_Thigh_Inferior			L_Thigh_Lateral			L_Shank_Posterior			L_Shank_Superior			L_Shank_Lateral			L_Shank_Inferior			L_Midfoot_Superior			L_Heel			L_Midfoot_Lateral			L_Toe			R_Thigh_Posterior			R_Thigh_Superior			R_Thigh_Lateral			R_Thigh_Inferior			R_Shank_Posterior			R_Shank_Superior			R_Shank_Lateral			R_Shank_Inferior			R_Midfoot_Superior			R_Heel			R_Midfoot_Lateral			R_Toe
		X1	Y1	Z1	X2	Y2	Z2	X3	Y3	Z3	X4	Y4	Z4	X5	Y5	Z5	X6	Y6	Z6	X7	Y7	Z7	X8	Y8	Z8	X9	Y9	Z9	X10	Y10	Z10	X11	Y11	Z11	X12	Y12	Z12	X13	Y13	Z13	X14	Y14	Z14	X15	Y15	Z15	X16	Y16	Z16	X17	Y17	Z17	X18	Y18	Z18	X19	Y19	Z19	X20	Y20	Z20	X21	Y21	Z21	X22	Y22	Z22	X23	Y23	Z23	X24	Y24	Z24	X25	Y25	Z25	X26	Y26	Z26	X27	Y27	Z27

51	   0.250	    0.80245804876454	    0.96385221343178	    0.62306675261790	    0.81319671600225	    0.96529561309547	    0.37321431123597	    0.61163775808456	    1.02175005063029	    0.49663979911291	    0.84090344314001	    0.74430571102353	    0.29749183638803	    0.77200050840851	    0.71311245115415	    0.30139474137777	    0.87663127280994	    0.65718003527978	    0.30957829996974	    0.80194176109101	    0.62919350685655	    0.31141028204697	    0.86983412297624	    0.37259578776870	    0.33012155371008	    0.94491730063093	    0.38218429655802	    0.33063561369712	    0.89174472250244	    0.30462904642930	    0.32827137301894	    0.95471571375466	    0.32441023060565	    0.32972236758889	    1.08866407820022	    0.14767395765075	    0.40080877079403	    0.95884907651093	    0.03042823148977	    0.44776813168460	    1.04881910796003	    0.05317392218544	    0.37040415538305	    1.21667864218774	    0.16086348833379	    0.38568454046802	    0.67728856429732	    0.77168653922614	    0.68672190367919	    0.75075133067037	    0.75538592090190	    0.67332243361007	    0.65994946135470	    0.67389117279686	    0.67829626268210	    0.72940067705800	    0.66240611952653	    0.66805924331787	    0.51957092303613	    0.38389934939092	    0.65902779337378	    0.58740660645858	    0.34834597723313	    0.65334784254321	    0.49476184859547	    0.31793925741810	    0.64493429193083	    0.56292482506093	    0.29479978606816	    0.64051085009697	    0.53607210618132	    0.09375511511200	    0.56656969380996	    0.36215100724930	    0.10427513111163	    0.53372860579617	    0.44509935271043	    0.04246146881634	    0.60408789493110	    0.64025510445881	    0.03178170097173	    0.56946744766996
52	   0.255	    0.80346648119417	    0.96221482643973	    0.62221697859277	    0.81491115588819	    0.96378152135377	    0.37236623021792	    0.61283747439255	    1.02004885577959	    0.49483054173355	    0.84300803665070	    0.74316792298273	    0.29717584859519	    0.77419579318393	    0.71177840366688	    0.30120188146178	    0.87895654594616	    0.65615435990208	    0.30961768324094	    0.80433850336739	    0.62795046081804	    0.31165429456352	    0.87037908307157	    0.37090073185385	    0.33030601989307	    0.94554428144145	    0.37947359465708	    0.33155182140407	    0.89137494066016	    0.30267523589817	    0.32865520675223	    0.95456928473040	    0.32159582876850	    0.33072656988348	    1.08497205964557	    0.14360553295981	    0.40288942103707	    0.95337320988278	    0.02842305197311	    0.44844667858804	    1.04425869703634	    0.04976598485336	    0.37180961697529	    1.21318128834658	    0.15529640349404	    0.38874576103668	    0.67715895266809	    0.77079114401485	    0.68554654169765	    0.75060316181950	    0.75415373574190	    0.67247764117818	    0.65942778957045	    0.67307045360789	    0.67735662241799	    0.72888928349815	    0.66125898604012	    0.66728967953673	    0.51556179388024	    0.38549187537048	    0.65872929690554	    0.58261623822077	    0.34842321194631	    0.65332597272701	    0.48930431351301	    0.32003343731845	    0.64479724304125	    0.55698240085728	    0.29538845817727	    0.64063988951571	    0.52564647275500	    0.09396117430526	    0.56688790806612	    0.35211269557051	    0.10931230167844	    0.53400640535526	    0.43344109192520	    0.04500457055154	    0.60396394594539	    0.62763873257728	    0.03168263609390	    0.56921185062075
53	   0.260	    0.80480014914288	    0.96063311389338	    0.62127758668476	    0.81689211947281	    0.96234544083801	    0.37141152548683	    0.61433829221256	    1.01836333420342	    0.49310060944224	    0.84550087860560	    0.74205453654772	    0.29681351068906	    0.77680829788103	    0.71042776030860	    0.30108670683488	    0.88175646252541	    0.65520759481916	    0.30971850235767	    0.80724104107103	    0.62673606982157	    0.31206684863802	    0.87085836983412	    0.36931691235879	    0.33035133448179	    0.94611948250630	    0.37633951141052	    0.33288075008133	    0.89046988124628	    0.30069828536900	    0.32898476411993	    0.95398180010491	    0.31831759225518	    0.33212720101446	    1.07938312323627	    0.13817196159774	    0.40541566176661	    0.94476419966436	    0.02706171536780	    0.44902558104951	    1.03688093525110	    0.04568372835414	    0.37322105633957	    1.20784254052695	    0.14709083706063	    0.39235469474477	    0.67745404576791	    0.76983743887607	    0.68428132382102	    0.75081141900452	    0.75300471702565	    0.67148580287233	    0.65944384824476	    0.67216902514327	    0.67634804866994	    0.72890251921595	    0.66009984908209	    0.66651573420091	    0.51216083498321	    0.38715623248854	    0.65844150852470	    0.57835646209476	    0.34851439057682	    0.65339854812257	    0.48437732192313	    0.32232386177257	    0.64475182019281	    0.55153687503500	    0.29604783444793	    0.64088028998053	    0.51553307045865	    0.09414642961562	    0.56722926144638	    0.34258095474153	    0.11486780460173	    0.53426417100728	    0.42196137985812	    0.04784592690061	    0.60382425281116	    0.61501226139881	    0.03159641196398	    0.56895269616929
54	   0.265	    0.80648286341916	    0.95912952446953	    0.62024634269482	    0.81916367141598	    0.96101215975760	    0.37034395341615	    0.61619712146266	    1.01672679713284	    0.49143152167769	    0.84823593604517	    0.74085542504646	    0.29637951038076	    0.77963561843369	    0.70906766357235	    0.30103011668619	    0.88473565838335	    0.65416807004329	    0.30980095284686	    0.81029551383992	    0.62551670469033	    0.31256117306501	    0.87112121576545	    0.36773607387141	    0.33030684983239	    0.94645326419438	    0.37292820689499	    0.33448054300040	    0.88909398465984	    0.29866490319874	    0.32934396256125	    0.95294077427771	    0.31475304023814	    0.33383856843995	    1.07277679316855	    0.13193198236622	    0.40826848020313	    0.93428161291554	    0.02668559149909	    0.44955345784467	    1.02781426195056	    0.04134660241232	    0.37467985239719	    1.20143255424739	    0.13707587876439	    0.39635293268250	    0.67813041683503	    0.76884977713754	    0.68293792491766	    0.75135257784127	    0.75194465823884	    0.67041781073773	    0.65995433088098	    0.67120108373945	    0.67528320690183	    0.72940753865567	    0.65894943673314	    0.66578289340197	    0.50943563812760	    0.38890034535967	    0.65813935961728	    0.57468493418254	    0.34861887527610	    0.65357221724511	    0.48006360536024	    0.32481138493064	    0.64473257276547	    0.54664956745941	    0.29678342546428	    0.64123536931262	    0.50578467409671	    0.09429028134250	    0.56757601654547	    0.33367351599970	    0.12100050659308	    0.53445676712989	    0.41071039271803	    0.05104032296511	    0.60365777331205	    0.60238406935679	    0.03152113644723	    0.56869718258463
55	   0.270	    0.80848795268868	    0.95773735626504	    0.61914327174541	    0.82170486742627	    0.95980877076612	    0.36918928916781	    0.61843273485848	    1.01521564012030	    0.48978644129878	    0.85102313537549	    0.73955940997200	    0.29589224978295	    0.78243573669400	    0.70778703191184	    0.30100050042689	    0.88755210266970	    0.65294930286668	    0.30980482908682	    0.81311559488230	    0.62432048849119	    0.31304323792110	    0.87105491041293	    0.36613873531800	    0.33023788705582	    0.94641371985281	    0.36952638583496	    0.33606731759059	    0.88739250636705	    0.29663811252788	    0.32979717794487	    0.95152490585895	    0.31121614653723	    0.33562707957997	    1.06602218230840	    0.12547530999771	    0.41124035262838	    0.92319241254339	    0.02732025515824	    0.45003937524365	    1.01814716438493	    0.03715411373881	    0.37614084632383	    1.19475864354671	    0.12600467114084	    0.40044142955470	    0.67916578435026	    0.76782977085399	    0.68151830978864	    0.75228153935603	    0.75094640366453	    0.66935465342195	    0.66095454120910	    0.67017130545711	    0.67416700667666	    0.73040525447283	    0.65781634916724	    0.66511699873580	    0.50749747581446	    0.39072532277530	    0.65778410892023	    0.57171041004557	    0.34872941997938	    0.65382999134398	    0.47650349636767	    0.32745822314045	    0.64461792070933	    0.54242611691961	    0.29758877905481	    0.64166259441728	    0.49646125021822	    0.09434563389189	    0.56788931227366	    0.32555827441549	    0.12778385678250	    0.53451507642142	    0.39978877387187	    0.05467968421005	    0.60344107403432	    0.58977092888800	    0.03145253468951	    0.56844747111064
